# xmcd
#
# Track frame offsets:
#	150
#	22050
#	38992
#	56625
#
# Disc length: 940 seconds
#
# Revision: 1
# Processed by: cddbd v1.5PL3 Copyright (c) Steve Scherf et al.
# Submitted via: CDex 1.50Beta5
#
DISCID=3103aa04
DTITLE=Keito Blow - Introduction
DYEAR=1900
DGENRE=Rock
TTITLE0=Heal The World
TTITLE1=Change
TTITLE2=Fly
TTITLE3=Fight For Your Right
EXTD=
EXTT0=
EXTT1=
EXTT2=
EXTT3=
PLAYORDER=
